<mxfile host="app.diagrams.net" modified="2024-04-06T11:17:18.208Z" agent="Mozilla/5.0 (Windows NT 10.0; Win64; x64) AppleWebKit/537.36 (KHTML, like Gecko) Chrome/123.0.0.0 Safari/537.36" etag="b1grIsgEpLpR86A2IRrZ" version="24.2.2" type="device">
  <diagram name="Page-1" id="l4BoGL3FAsCcP1DGVTGi">
    <mxGraphModel dx="2391" dy="1114" grid="1" gridSize="10" guides="1" tooltips="1" connect="1" arrows="1" fold="1" page="1" pageScale="1" pageWidth="1400" pageHeight="850" math="0" shadow="0">
      <root>
        <mxCell id="0" />
        <mxCell id="1" parent="0" />
        <mxCell id="DLAa6tKkzbMEu4j2qP5K-3" value="Policija&lt;div&gt;&lt;br&gt;&lt;/div&gt;" style="shape=umlActor;verticalLabelPosition=bottom;verticalAlign=top;html=1;" vertex="1" parent="1">
          <mxGeometry x="880" y="810" width="30" height="60" as="geometry" />
        </mxCell>
        <mxCell id="DLAa6tKkzbMEu4j2qP5K-4" value="Gradjanin&lt;div&gt;&lt;br&gt;&lt;/div&gt;" style="shape=umlActor;verticalLabelPosition=bottom;verticalAlign=top;html=1;" vertex="1" parent="1">
          <mxGeometry x="50" y="840" width="30" height="60" as="geometry" />
        </mxCell>
        <mxCell id="DLAa6tKkzbMEu4j2qP5K-6" value="Granicna policija&lt;div&gt;&lt;br&gt;&lt;/div&gt;" style="shape=umlActor;verticalLabelPosition=bottom;verticalAlign=top;html=1;" vertex="1" parent="1">
          <mxGeometry x="70" y="470" width="30" height="60" as="geometry" />
        </mxCell>
        <mxCell id="DLAa6tKkzbMEu4j2qP5K-7" value="Kontrola Aktivnosti Sumnjivca" style="shape=umlActor;verticalLabelPosition=bottom;verticalAlign=top;html=1;" vertex="1" parent="1">
          <mxGeometry x="760" y="480" width="30" height="60" as="geometry" />
        </mxCell>
        <mxCell id="DLAa6tKkzbMEu4j2qP5K-10" value="Podnosenje zahteva za saobracajnu dozvolu&lt;div&gt;&lt;br&gt;&lt;/div&gt;" style="ellipse;whiteSpace=wrap;html=1;" vertex="1" parent="1">
          <mxGeometry x="220" y="710" width="155" height="60" as="geometry" />
        </mxCell>
        <mxCell id="DLAa6tKkzbMEu4j2qP5K-12" value="Izdavanje saobracajne dozvole&lt;div&gt;&lt;br&gt;&lt;/div&gt;" style="ellipse;whiteSpace=wrap;html=1;" vertex="1" parent="1">
          <mxGeometry x="530" y="710" width="160" height="50" as="geometry" />
        </mxCell>
        <mxCell id="DLAa6tKkzbMEu4j2qP5K-21" value="" style="endArrow=none;html=1;rounded=0;" edge="1" parent="1">
          <mxGeometry relative="1" as="geometry">
            <mxPoint x="385" y="730" as="sourcePoint" />
            <mxPoint x="505" y="730" as="targetPoint" />
          </mxGeometry>
        </mxCell>
        <mxCell id="DLAa6tKkzbMEu4j2qP5K-22" value="" style="endArrow=none;html=1;rounded=0;" edge="1" parent="1">
          <mxGeometry relative="1" as="geometry">
            <mxPoint x="90" y="814.65" as="sourcePoint" />
            <mxPoint x="200" y="750" as="targetPoint" />
            <Array as="points" />
          </mxGeometry>
        </mxCell>
        <mxCell id="DLAa6tKkzbMEu4j2qP5K-26" value="Podnosenje zahteva za pasos" style="ellipse;whiteSpace=wrap;html=1;" vertex="1" parent="1">
          <mxGeometry x="220" y="790" width="155" height="60" as="geometry" />
        </mxCell>
        <mxCell id="DLAa6tKkzbMEu4j2qP5K-27" value="&lt;div&gt;Izdavanje pasosa&lt;/div&gt;" style="ellipse;whiteSpace=wrap;html=1;" vertex="1" parent="1">
          <mxGeometry x="530" y="795" width="160" height="50" as="geometry" />
        </mxCell>
        <mxCell id="DLAa6tKkzbMEu4j2qP5K-28" value="Podnosenje zahteva za vozacku dozvolu" style="ellipse;whiteSpace=wrap;html=1;" vertex="1" parent="1">
          <mxGeometry x="220" y="880" width="155" height="60" as="geometry" />
        </mxCell>
        <mxCell id="DLAa6tKkzbMEu4j2qP5K-29" value="Podnosenje zahteva za licnu kartu" style="ellipse;whiteSpace=wrap;html=1;" vertex="1" parent="1">
          <mxGeometry x="220" y="970" width="155" height="60" as="geometry" />
        </mxCell>
        <mxCell id="DLAa6tKkzbMEu4j2qP5K-30" value="&lt;div&gt;Izdavanje vozacke dozvole&lt;/div&gt;" style="ellipse;whiteSpace=wrap;html=1;" vertex="1" parent="1">
          <mxGeometry x="530" y="885" width="160" height="50" as="geometry" />
        </mxCell>
        <mxCell id="DLAa6tKkzbMEu4j2qP5K-31" value="&lt;div&gt;Izdavanje licne karte&lt;/div&gt;" style="ellipse;whiteSpace=wrap;html=1;" vertex="1" parent="1">
          <mxGeometry x="530" y="975" width="160" height="50" as="geometry" />
        </mxCell>
        <mxCell id="DLAa6tKkzbMEu4j2qP5K-32" value="" style="endArrow=none;html=1;rounded=0;" edge="1" parent="1">
          <mxGeometry relative="1" as="geometry">
            <mxPoint x="390" y="909.5" as="sourcePoint" />
            <mxPoint x="510" y="909.5" as="targetPoint" />
          </mxGeometry>
        </mxCell>
        <mxCell id="DLAa6tKkzbMEu4j2qP5K-33" value="" style="endArrow=none;html=1;rounded=0;" edge="1" parent="1">
          <mxGeometry relative="1" as="geometry">
            <mxPoint x="390" y="999.5" as="sourcePoint" />
            <mxPoint x="510" y="999.5" as="targetPoint" />
          </mxGeometry>
        </mxCell>
        <mxCell id="DLAa6tKkzbMEu4j2qP5K-34" value="" style="endArrow=none;html=1;rounded=0;" edge="1" parent="1">
          <mxGeometry relative="1" as="geometry">
            <mxPoint x="390" y="820" as="sourcePoint" />
            <mxPoint x="510" y="820" as="targetPoint" />
          </mxGeometry>
        </mxCell>
        <mxCell id="DLAa6tKkzbMEu4j2qP5K-35" value="" style="endArrow=none;html=1;rounded=0;" edge="1" parent="1">
          <mxGeometry relative="1" as="geometry">
            <mxPoint x="90" y="910" as="sourcePoint" />
            <mxPoint x="210" y="985" as="targetPoint" />
            <Array as="points" />
          </mxGeometry>
        </mxCell>
        <mxCell id="DLAa6tKkzbMEu4j2qP5K-36" value="" style="endArrow=none;html=1;rounded=0;" edge="1" parent="1">
          <mxGeometry relative="1" as="geometry">
            <mxPoint x="100" y="860" as="sourcePoint" />
            <mxPoint x="210" y="900" as="targetPoint" />
            <Array as="points" />
          </mxGeometry>
        </mxCell>
        <mxCell id="DLAa6tKkzbMEu4j2qP5K-37" value="" style="endArrow=none;html=1;rounded=0;" edge="1" parent="1">
          <mxGeometry relative="1" as="geometry">
            <mxPoint x="100" y="840" as="sourcePoint" />
            <mxPoint x="200" y="830" as="targetPoint" />
          </mxGeometry>
        </mxCell>
        <mxCell id="DLAa6tKkzbMEu4j2qP5K-38" value="" style="endArrow=none;html=1;rounded=0;" edge="1" parent="1">
          <mxGeometry relative="1" as="geometry">
            <mxPoint x="860" y="810" as="sourcePoint" />
            <mxPoint x="700" y="740" as="targetPoint" />
            <Array as="points" />
          </mxGeometry>
        </mxCell>
        <mxCell id="DLAa6tKkzbMEu4j2qP5K-39" value="" style="endArrow=none;html=1;rounded=0;" edge="1" parent="1">
          <mxGeometry relative="1" as="geometry">
            <mxPoint x="710" y="820" as="sourcePoint" />
            <mxPoint x="860" y="850" as="targetPoint" />
            <Array as="points" />
          </mxGeometry>
        </mxCell>
        <mxCell id="DLAa6tKkzbMEu4j2qP5K-40" value="" style="endArrow=none;html=1;rounded=0;" edge="1" parent="1">
          <mxGeometry relative="1" as="geometry">
            <mxPoint x="700" y="910" as="sourcePoint" />
            <mxPoint x="860" y="870" as="targetPoint" />
            <Array as="points" />
          </mxGeometry>
        </mxCell>
        <mxCell id="DLAa6tKkzbMEu4j2qP5K-41" value="" style="endArrow=none;html=1;rounded=0;" edge="1" parent="1">
          <mxGeometry relative="1" as="geometry">
            <mxPoint x="710" y="1000" as="sourcePoint" />
            <mxPoint x="860" y="900" as="targetPoint" />
            <Array as="points" />
          </mxGeometry>
        </mxCell>
        <mxCell id="DLAa6tKkzbMEu4j2qP5K-43" value="Pratiti status gradjanina" style="ellipse;whiteSpace=wrap;html=1;" vertex="1" parent="1">
          <mxGeometry x="370" y="1070" width="155" height="60" as="geometry" />
        </mxCell>
        <mxCell id="DLAa6tKkzbMEu4j2qP5K-44" value="" style="endArrow=none;html=1;rounded=0;" edge="1" parent="1">
          <mxGeometry relative="1" as="geometry">
            <mxPoint x="70" y="920" as="sourcePoint" />
            <mxPoint x="360" y="1100" as="targetPoint" />
            <Array as="points">
              <mxPoint x="130" y="1040" />
            </Array>
          </mxGeometry>
        </mxCell>
        <mxCell id="DLAa6tKkzbMEu4j2qP5K-45" value="" style="endArrow=none;html=1;rounded=0;" edge="1" parent="1">
          <mxGeometry relative="1" as="geometry">
            <mxPoint x="540" y="1100" as="sourcePoint" />
            <mxPoint x="890" y="920" as="targetPoint" />
            <Array as="points">
              <mxPoint x="850" y="1040" />
            </Array>
          </mxGeometry>
        </mxCell>
        <mxCell id="DLAa6tKkzbMEu4j2qP5K-46" value="&lt;div&gt;Validacija podataka pasosa&lt;/div&gt;" style="ellipse;whiteSpace=wrap;html=1;" vertex="1" parent="1">
          <mxGeometry x="225" y="240" width="155" height="60" as="geometry" />
        </mxCell>
        <mxCell id="DLAa6tKkzbMEu4j2qP5K-47" value="&lt;div&gt;Validacija podataka licne karte&lt;br&gt;&lt;/div&gt;" style="ellipse;whiteSpace=wrap;html=1;" vertex="1" parent="1">
          <mxGeometry x="225" y="320" width="155" height="60" as="geometry" />
        </mxCell>
        <mxCell id="DLAa6tKkzbMEu4j2qP5K-48" value="&lt;div&gt;Validacija podataka saobracajne dozvole&lt;/div&gt;" style="ellipse;whiteSpace=wrap;html=1;" vertex="1" parent="1">
          <mxGeometry x="230" y="400" width="155" height="60" as="geometry" />
        </mxCell>
        <mxCell id="DLAa6tKkzbMEu4j2qP5K-49" value="&lt;div&gt;Validacija podataka vozacke dozvole&lt;br&gt;&lt;/div&gt;" style="ellipse;whiteSpace=wrap;html=1;" vertex="1" parent="1">
          <mxGeometry x="225" y="490" width="155" height="60" as="geometry" />
        </mxCell>
        <mxCell id="DLAa6tKkzbMEu4j2qP5K-50" value="&lt;div&gt;Pratiti aktivnost sumnjivog lica&lt;/div&gt;" style="ellipse;whiteSpace=wrap;html=1;" vertex="1" parent="1">
          <mxGeometry x="225" y="590" width="155" height="60" as="geometry" />
        </mxCell>
        <mxCell id="DLAa6tKkzbMEu4j2qP5K-51" value="" style="endArrow=none;html=1;rounded=0;" edge="1" parent="1">
          <mxGeometry relative="1" as="geometry">
            <mxPoint x="110" y="560" as="sourcePoint" />
            <mxPoint x="220" y="610" as="targetPoint" />
          </mxGeometry>
        </mxCell>
        <mxCell id="DLAa6tKkzbMEu4j2qP5K-52" value="" style="endArrow=none;html=1;rounded=0;" edge="1" parent="1">
          <mxGeometry relative="1" as="geometry">
            <mxPoint x="110" y="509.5" as="sourcePoint" />
            <mxPoint x="210" y="520" as="targetPoint" />
          </mxGeometry>
        </mxCell>
        <mxCell id="DLAa6tKkzbMEu4j2qP5K-53" value="" style="endArrow=none;html=1;rounded=0;" edge="1" parent="1">
          <mxGeometry relative="1" as="geometry">
            <mxPoint x="105" y="499.5" as="sourcePoint" />
            <mxPoint x="220" y="440" as="targetPoint" />
          </mxGeometry>
        </mxCell>
        <mxCell id="DLAa6tKkzbMEu4j2qP5K-54" value="" style="endArrow=none;html=1;rounded=0;" edge="1" parent="1">
          <mxGeometry relative="1" as="geometry">
            <mxPoint x="105" y="480" as="sourcePoint" />
            <mxPoint x="220" y="360" as="targetPoint" />
          </mxGeometry>
        </mxCell>
        <mxCell id="DLAa6tKkzbMEu4j2qP5K-55" value="" style="endArrow=none;html=1;rounded=0;" edge="1" parent="1">
          <mxGeometry relative="1" as="geometry">
            <mxPoint x="100" y="460" as="sourcePoint" />
            <mxPoint x="210" y="280" as="targetPoint" />
            <Array as="points" />
          </mxGeometry>
        </mxCell>
        <mxCell id="DLAa6tKkzbMEu4j2qP5K-56" value="" style="endArrow=none;html=1;rounded=0;" edge="1" parent="1">
          <mxGeometry relative="1" as="geometry">
            <mxPoint x="390" y="620" as="sourcePoint" />
            <mxPoint x="690" y="560" as="targetPoint" />
          </mxGeometry>
        </mxCell>
      </root>
    </mxGraphModel>
  </diagram>
</mxfile>
